<?xml version="1.0" encoding="UTF-8" standalone="no"?>
<!-- Created with Inkscape (http://www.inkscape.org/) -->

<svg
   xmlns:dc="http://purl.org/dc/elements/1.1/"
   xmlns:cc="http://creativecommons.org/ns#"
   xmlns:rdf="http://www.w3.org/1999/02/22-rdf-syntax-ns#"
   xmlns:svg="http://www.w3.org/2000/svg"
   xmlns="http://www.w3.org/2000/svg"
   version="1.1"
   width="38"
   height="38"
   id="svg2">
  <defs
     id="defs4" />
  <metadata
     id="metadata7">
    <rdf:RDF>
      <cc:Work
         rdf:about="">
        <dc:format>image/svg+xml</dc:format>
        <dc:type
           rdf:resource="http://purl.org/dc/dcmitype/StillImage" />
        <dc:title></dc:title>
      </cc:Work>
    </rdf:RDF>
  </metadata>
  <polygon
     points="48.002,45.512 91.271,23.875 47.998,2.179 4.729,23.814 "
     transform="matrix(0.23110165,0,0,0.25384796,7.9071203,1.4468688)"
     id="polygon3858"
     style="fill:#e6e6e6;fill-opacity:1" />
  <path
     d="m 8.0000064,9 0,9.931378 L 18.100006,24 l 0,-9.600007 z"
     id="polygon3860"
     style="fill:#e6e6e6" />
  <path
     d="M 19.9,23.999999 30,18.905352 30,8.999999 19.9,14.399997 z"
     id="polygon3862"
     style="fill:#e6e6e6" />
  <path
     d="m 19.9,14.399997 0,9.6 10.1,-5.094643 z"
     id="path3864"
     style="fill:#f9f9f9" />
  <path
     d="m 18.100006,14.399994 0,9.6 -10.0999995,-5.068627 z"
     id="path3866"
     style="fill:#f9f9f9" />
  <path
     d="M 19.000925,12.999997 29,7.5074924 19,2.0000096 z"
     id="path3868"
     style="fill:#f9f9f9;fill-opacity:1" />
  <g
     transform="matrix(1.0030264,0,0,1.0014306,-0.66864649,0.05457994)"
     id="text2989"
     style="font-size:10px;font-style:normal;font-variant:normal;font-weight:normal;font-stretch:normal;line-height:125%;letter-spacing:0px;word-spacing:0px;fill:#ffffff;fill-opacity:1;stroke:none;font-family:Montserrat;-inkscape-font-specification:Montserrat">
    <path
       d="m 8.9530508,35.89407 -1.2,0 0,-2.76 -2.6,-4.23 1.29,0 1.91,3.18 1.9100002,-3.18 1.29,0 -2.6000002,4.23 0,2.76"
       id="path2991"
       style="font-family:Montserrat;-inkscape-font-specification:Montserrat" />
    <path
       d="m 12.43352,28.90407 1.18,0 0,6.99 -1.18,0 0,-6.99"
       id="path2993"
       style="font-family:Montserrat;-inkscape-font-specification:Montserrat" />
    <path
       d="m 20.46852,28.90407 0,1.11 -3.73,0 0,1.85 3.35,0 0,1.05 -3.35,0 0,1.87 3.85,0 0,1.11 -5.03,0 0,-6.99 4.91,0"
       id="path2995"
       style="font-family:Montserrat;-inkscape-font-specification:Montserrat" />
    <path
       d="m 22.101488,35.89407 0,-6.99 1.18,0 0,5.87 3.19,0 0,1.12 -4.37,0"
       id="path2997"
       style="font-family:Montserrat;-inkscape-font-specification:Montserrat" />
    <path
       d="m 30.165551,28.90407 c 1.253329,7e-6 2.216661,0.306673 2.89,0.92 0.673326,0.606672 1.009993,1.453338 1.01,2.54 -7e-6,1.086669 -0.326674,1.946668 -0.98,2.58 -0.653339,0.633333 -1.653338,0.95 -3,0.95 l -2.32,0 0,-6.99 2.4,0 m 2.71,3.49 c -6e-6,-1.599995 -0.916672,-2.399994 -2.75,-2.4 l -1.18,0 0,4.79 1.31,0 c 0.846662,10e-7 1.493328,-0.199999 1.94,-0.6 0.453327,-0.406665 0.679994,-1.003331 0.68,-1.79"
       id="path2999"
       style="font-family:Montserrat;-inkscape-font-specification:Montserrat" />
  </g>
</svg>
