<?xml version="1.0" encoding="UTF-8" standalone="no"?>
<!-- Created with Inkscape (http://www.inkscape.org/) -->

<svg
   xmlns:dc="http://purl.org/dc/elements/1.1/"
   xmlns:cc="http://creativecommons.org/ns#"
   xmlns:rdf="http://www.w3.org/1999/02/22-rdf-syntax-ns#"
   xmlns:svg="http://www.w3.org/2000/svg"
   xmlns="http://www.w3.org/2000/svg"
   version="1.1"
   width="55"
   height="63"
   id="svg2">
  <defs
     id="defs4" />
  <metadata
     id="metadata7">
    <rdf:RDF>
      <cc:Work
         rdf:about="">
        <dc:format>image/svg+xml</dc:format>
        <dc:type
           rdf:resource="http://purl.org/dc/dcmitype/StillImage" />
        <dc:title></dc:title>
      </cc:Work>
    </rdf:RDF>
  </metadata>
  <g
     transform="translate(985.5,-669.86218)"
     id="layer1">
    <text
       x="-52.75"
       y="199.36218"
       id="text2695"
       xml:space="preserve"
       style="font-size:36px;font-style:normal;font-variant:normal;font-weight:normal;font-stretch:normal;line-height:200%;letter-spacing:0px;word-spacing:0px;fill:#ffffff;fill-opacity:1;stroke:none;font-family:'Lobster 1.4';-inkscape-font-specification:'Lobster 1.4'"><tspan
         x="-52.75"
         y="199.36218"
         id="tspan2697">y</tspan></text>
    <text
       x="-741.04791"
       y="70.928825"
       transform="translate(0,308.2677)"
       id="text2719"
       xml:space="preserve"
       style="font-size:36px;font-style:normal;font-variant:normal;font-weight:normal;font-stretch:normal;line-height:200%;letter-spacing:0px;word-spacing:0px;fill:#000000;fill-opacity:1;stroke:none;font-family:FontAwesome;-inkscape-font-specification:FontAwesome"><tspan
         x="-741.04791"
         y="70.928825"
         id="tspan2721"></tspan></text>
    <path
       d="m -958.50001,675.86218 c -13.24999,0 -23.99999,10.75605 -23.99999,24.00605 0,13.25 10.75,23.99193 23.99999,23.99193 l 8.0519,0 0,8.00202 12.01415,-11.99597 -12.01415,-12.0383 0,7.94556 -8.0519,0.0847 c -8.828,0 -16.00471,-7.16192 -16.00471,-15.98992 0,-8.828 7.17671,-16.00403 16.00471,-16.00403 8.82801,0 16.00473,7.17603 16.00473,16.00403 l 7.99528,0 c 0,-13.25 -10.75,-24.00605 -24.00001,-24.00605 z m -7.24527,17.16129 c 0.90126,1.65788 1.84844,3.31141 2.83019,4.95363 0.98174,1.64224 2.01685,3.29424 3.12735,4.96774 l 0,6.33669 3.04245,0 0,-6.37903 c 1.11049,-1.65786 2.14755,-3.2988 3.11321,-4.9254 0.98173,-1.64222 1.92891,-3.29575 2.83019,-4.95363 l -3.38207,0 c -0.56331,1.21996 -1.19004,2.43684 -1.88208,3.64113 -0.69205,1.20431 -1.39841,2.38344 -2.12264,3.55645 -0.74034,-1.17301 -1.4467,-2.35214 -2.12264,-3.55645 -0.67596,-1.20429 -1.30463,-2.42117 -1.86793,-3.64113 l -3.56603,0 z"
       id="path2729"
       style="fill:#ff7f2a" />
  </g>
</svg>
