<?xml version="1.0" encoding="UTF-8" standalone="no"?>
<!-- Created with Inkscape (http://www.inkscape.org/) -->

<svg
   xmlns:dc="http://purl.org/dc/elements/1.1/"
   xmlns:cc="http://creativecommons.org/ns#"
   xmlns:rdf="http://www.w3.org/1999/02/22-rdf-syntax-ns#"
   xmlns:svg="http://www.w3.org/2000/svg"
   xmlns="http://www.w3.org/2000/svg"
   xmlns:sodipodi="http://sodipodi.sourceforge.net/DTD/sodipodi-0.dtd"
   xmlns:inkscape="http://www.inkscape.org/namespaces/inkscape"
   version="1.1"
   width="55"
   height="63"
   id="svg2"
   inkscape:version="0.48.4 r9939"
   sodipodi:docname="yield-logo.svg">
  <sodipodi:namedview
     pagecolor="#ffffff"
     bordercolor="#666666"
     borderopacity="1"
     objecttolerance="10"
     gridtolerance="10"
     guidetolerance="10"
     inkscape:pageopacity="0"
     inkscape:pageshadow="2"
     inkscape:window-width="1551"
     inkscape:window-height="876"
     id="namedview11"
     showgrid="false"
     inkscape:zoom="3.6203867"
     inkscape:cx="40.628163"
     inkscape:cy="7.3124136"
     inkscape:window-x="49"
     inkscape:window-y="24"
     inkscape:window-maximized="1"
     inkscape:current-layer="svg2" />
  <defs
     id="defs4" />
  <metadata
     id="metadata7">
    <rdf:RDF>
      <cc:Work
         rdf:about="">
        <dc:format>image/svg+xml</dc:format>
        <dc:type
           rdf:resource="http://purl.org/dc/dcmitype/StillImage" />
        <dc:title />
      </cc:Work>
    </rdf:RDF>
  </metadata>
  <text
     sodipodi:linespacing="200%"
     style="font-size:36px;font-style:normal;font-variant:normal;font-weight:normal;font-stretch:normal;line-height:200%;letter-spacing:0px;word-spacing:0px;fill:#000000;fill-opacity:1;stroke:none;font-family:FontAwesome;-inkscape-font-specification:FontAwesome"
     xml:space="preserve"
     id="text2719"
     y="-290.66565"
     x="244.45209"><tspan
       id="tspan2721"
       y="-290.66565"
       x="244.45209"></tspan></text>
  <path
     inkscape:connector-curvature="0"
     style="fill:#ffffff"
     id="path2729"
     d="M 26.99999,6 C 13.75,6 3,16.75605 3,30.00605 c 0,13.25 10.75,23.99193 23.99999,23.99193 l 8.0519,0 0,8.00202 12.01415,-11.99597 -12.01415,-12.0383 0,7.94556 -8.0519,0.0847 c -8.828,0 -16.00471,-7.16192 -16.00471,-15.98992 0,-8.828 7.17671,-16.00403 16.00471,-16.00403 8.82801,0 16.00473,7.17603 16.00473,16.00403 l 7.99528,0 C 51,16.75607 40.25,6.00002 26.99999,6.00002 z m -7.24527,17.16129 c 0.90126,1.65788 1.84844,3.31141 2.83019,4.95363 0.98174,1.64224 2.01685,3.29424 3.12735,4.96774 l 0,6.33669 3.04245,0 0,-6.37903 c 1.11049,-1.65786 2.14755,-3.2988 3.11321,-4.9254 0.98173,-1.64222 1.92891,-3.29575 2.83019,-4.95363 l -3.38207,0 c -0.56331,1.21996 -1.19004,2.43684 -1.88208,3.64113 -0.69205,1.20431 -1.39841,2.38344 -2.12264,3.55645 -0.74034,-1.17301 -1.4467,-2.35214 -2.12264,-3.55645 -0.67596,-1.20429 -1.30463,-2.42117 -1.86793,-3.64113 l -3.56603,0 z" />
</svg>
